<svg xmlns="http://www.w3.org/2000/svg" viewBox="0 0 99.07 207.42"><defs><style>.cls-1{fill:#fffcf3;}</style></defs><g id="Layer_2" data-name="Layer 2"><g id="Layer_1-2" data-name="Layer 1"><path class="cls-1" d="M11.78,5.42.55,13a48.94,48.94,0,0,0-.5,9.47c.14,3.12.34,6.26.59,9.44.43,3.63.74,7.07.91,10.28A32.7,32.7,0,0,1,.15,53a20.7,20.7,0,0,0,.76,2.76l.73,2a31.79,31.79,0,0,1,1.1,3.38,19.32,19.32,0,0,1-.21,5Q7,75.84,11.26,87.53q5.41,13.92,11.62,27.74a102.13,102.13,0,0,0,15,24.24A37.49,37.49,0,0,0,40,148.22a44,44,0,0,0,3.43,7.06c3.24,5,13.29,14.14,16.28,22.24s18.07,32,22.09,29.76c.71-.67,1.39-1.36,2.06-2.07a33.34,33.34,0,0,0,6.74-10.82,12.1,12.1,0,0,0,2.89-3,12,12,0,0,0,1.44-3.18,16.13,16.13,0,0,0,1.19-2,25.68,25.68,0,0,1,2.18-3.07q2.82-14.7-4.44-34.39a141.89,141.89,0,0,0-12.45-25.54Q73.86,111.07,67,100.7a28.74,28.74,0,0,1-2-3.06c-.56-1.07-1.51-2.87-2.82-5.42q-1.84-5-4.06-9.87t-4.54-9.7c-1.46-3-2.88-6.08-4.23-9.24S46.8,57.1,45.65,54a90.5,90.5,0,0,1-5.46-23,70.69,70.69,0,0,1-6.51-13.14q-1.23-3.33-2.83-6.91A44.43,44.43,0,0,1,26.47,7.6C25.24,6.52,23.54,4,21.33,0l-2.9,1.84a5.16,5.16,0,0,0-3.88-.09C13.83,1.77,12.9,3,11.78,5.42Z"/></g></g></svg>