<svg xmlns="http://www.w3.org/2000/svg" viewBox="0 0 112.66 201.35"><defs><style>.cls-1{fill:#fffcf3;}</style></defs><g id="Layer_2" data-name="Layer 2"><g id="Layer_1-2" data-name="Layer 1"><path class="cls-1" d="M102.05,195.11l10.52-8.53a48.86,48.86,0,0,0-.34-9.48c-.41-3.09-.89-6.21-1.42-9.36-.75-3.57-1.36-7-1.81-10.16a32.67,32.67,0,0,1,.44-10.84,21.21,21.21,0,0,0-1-2.68l-.91-1.92a32.89,32.89,0,0,1-1.39-3.28,19.51,19.51,0,0,1-.24-5q-5.25-9.32-10.58-20.59-6.61-13.39-14-26.61A102,102,0,0,0,64.24,63.83a37.18,37.18,0,0,0-2.86-8.48,44.75,44.75,0,0,0-4-6.74C53.68,44,42.85,35.7,39.16,27.9S18.35-2.35,14.54.2c-.65.73-1.27,1.48-1.87,2.24A33.32,33.32,0,0,0,6.91,13.82,12,12,0,0,0,4.29,17a11.4,11.4,0,0,0-1.15,3.29,16.4,16.4,0,0,0-1,2.07,24.65,24.65,0,0,1-1.9,3.25Q-1.3,40.53,7.67,59.49A142.2,142.2,0,0,0,22.33,83.84q8.57,11.5,16.31,21.22a28.72,28.72,0,0,1,2.22,2.88c.65,1,1.75,2.72,3.29,5.15q2.28,4.81,4.91,9.48t5.38,9.26q2.58,4.28,5,8.82c1.61,3,3.14,6.06,4.56,9.07a90.67,90.67,0,0,1,7.47,22.44,71.65,71.65,0,0,1,7.64,12.53c1,2.14,2.15,4.34,3.42,6.63a41.92,41.92,0,0,1,4.66,2.91c1.32,1,3.24,3.32,5.79,7.12l2.73-2.09a5.14,5.14,0,0,0,3.87-.25Q100.69,198.88,102.05,195.11Z"/></g></g></svg>