<svg xmlns="http://www.w3.org/2000/svg" viewBox="0 0 671 1131"><defs><style>.cls-1{fill:#fffcf3;}.cls-2,.cls-3{fill:none;}.cls-2{stroke:#fffcf3;stroke-miterlimit:10;stroke-width:10px;}</style></defs><g id="Layer_2" data-name="Layer 2"><g id="Layer_1-2" data-name="Layer 1"><path class="cls-1" d="M123.75,110.52l-11.94,9.35c-1.57,8.5-2.88,17.15-3.91,26s-2,17.9-3,27.08c-1,10.63-2,20.58-3.06,29.76a236.41,236.41,0,0,1-5.11,28.68c-.23,3.57-.37,6.35-.41,8.52l-.14,6.36c-.11,5-.23,8.53-.36,10.64s-.79,6.76-2,13.81q0,32-.82,69.26-.75,44.72-.8,90T95.4,513.7c-.8,8.51-1.3,17.39-1.5,26.59q-.24,10.69.18,23.42c.79,17.34,5.59,53.63,5,79.46s2.89,108.58,7,106.65c.83-1.12,1.64-2.34,2.45-3.62q5.24-8.41,9.48-23.21a15.76,15.76,0,0,0,3.44-5.25,45.43,45.43,0,0,0,2.35-7.39c.65-1.44,1.21-2.82,1.7-4.26a59.15,59.15,0,0,1,2.91-6.29q7.74-38.22,9.1-101,.93-42.63-.69-84.7t-3.35-78.39c-.22-3.57-.38-7.09-.46-10.66s-.17-9.62-.3-18.15q.35-16,.35-31.94T132.94,343q-.12-14.89,0-30.35t.44-30.39q.84-38.28,4.07-70.22-.91-22.35-.44-43.69.24-10.62.25-22.33c-1-5-1.74-9.65-2.34-13.9s-1-13.15-1.37-26.71l-3,2.11c-.85-2.86-1.89-4.33-3.12-4.36Q126.46,102.13,123.75,110.52Z"/><path class="cls-1" d="M59.67,131.92l5.62,8.9q7.45,1.58,15.23,2.54t15.84,1.84c6.21.57,12,1.18,17.41,1.83a108.58,108.58,0,0,1,16.8,3.4c2.08.11,3.71.17,5,.17h3.71c2.93,0,5,0,6.21.1a70,70,0,0,1,8.09,1.3q18.65-.52,40.42-.52,26.11-.18,52.53-.88a432.56,432.56,0,0,0,48.81-3.84c5,.47,10.17.71,15.54.71q6.24,0,13.66-.53c10.11-.89,31.23-5.13,46.31-5.13s63.33-4,62.15-7.05c-.66-.61-1.39-1.2-2.14-1.79a48.1,48.1,0,0,0-13.67-6.82,9.17,9.17,0,0,0-3.11-2.52,21.74,21.74,0,0,0-4.34-1.66,23,23,0,0,0-2.5-1.22,31.7,31.7,0,0,1-3.72-2.11q-22.39-5.23-59.07-5.23-24.89,0-49.41,1.92t-45.71,3.84c-2.08.23-4.13.41-6.21.52l-10.59.53q-9.33,0-18.64.26t-18.65.61q-8.68.34-17.71.53t-17.74.17a399.88,399.88,0,0,1-41-1.93q-13,1.06-25.49,1.06-6.19,0-13,.17c-2.9.82-5.61,1.49-8.09,2a131,131,0,0,1-15.56,1.48l1.26,2.28c-1.66.69-2.5,1.5-2.5,2.44C54.94,129.76,56.39,130.64,59.67,131.92Z"/><line class="cls-2" x1="364.57" y1="139.14" x2="364.57" y2="499"/><rect class="cls-3" width="671" height="1131"/><path class="cls-1" d="M142.58,978.52q-1.61-42.15-3.35-78.4c-.22-3.57-.38-7.09-.46-10.65s-.17-9.62-.3-18.16q.34-16,.35-31.94t-.11-32q-.12-14.89,0-30.34t.44-30.39q.84-38.3,4.06-70.22-.9-22.35-.43-43.69.24-10.62.25-22.33c-1-5-1.74-9.65-2.34-13.91s-1-13.15-1.37-26.7l-3,2.1c-.86-2.86-1.9-4.33-3.12-4.35q-.9-1-3.61,7.36l-11.94,9.36q-2.35,12.74-3.91,26t-3,27.07c-1,10.63-2,20.59-3.06,29.77a236.84,236.84,0,0,1-5.12,28.68c-.22,3.56-.36,6.35-.4,8.52l-.14,6.36c-.11,5-.23,8.52-.36,10.64s-.79,6.75-2,13.81q0,32-.83,69.25-.74,44.73-.79,90t3.23,83.71c-.8,8.52-1.3,17.4-1.5,26.59q-.24,10.69.18,23.43c.79,17.33,5.59,53.62,5,79.46-.12,5.58-.05,13.86.17,23.39h34.15q3.24-29.25,4.08-67.79Q144.2,1020.58,142.58,978.52Z"/></g></g></svg>