<svg xmlns="http://www.w3.org/2000/svg" viewBox="0 0 141.77 175.1"><defs><style>.cls-1{fill:#fffcf3;}</style></defs><g id="Layer_2" data-name="Layer 2"><g id="Layer_1-2" data-name="Layer 1"><path class="cls-1" d="M132,5.3,119.56,0a49.45,49.45,0,0,0-8.22,4.74q-3.8,2.72-7.6,5.64c-2.81,2.34-5.52,4.47-8.12,6.36a32.91,32.91,0,0,1-9.79,4.69,24.25,24.25,0,0,0-1.91,2.13l-1.27,1.7A29.11,29.11,0,0,1,80.41,28a18.91,18.91,0,0,1-4.31,2.55q-5.76,9-13.23,19Q54.14,61.71,45.93,74.43A102.11,102.11,0,0,0,33.76,100.2a37.74,37.74,0,0,0-6.16,6.5,44.67,44.67,0,0,0-4.05,6.73c-2.41,5.42-4.63,18.85-9.79,25.77s-17,32.55-12.94,34.72c1,.24,1.9.43,2.86.61a33.42,33.42,0,0,0,12.75-.24,12,12,0,0,0,4.05.81,11.52,11.52,0,0,0,3.46-.53,15.52,15.52,0,0,0,2.3-.06,24.21,24.21,0,0,1,3.76.15Q43.88,169,56.43,152.21a141.83,141.83,0,0,0,14.64-24.35q6.15-13,11.11-24.35a27.6,27.6,0,0,1,1.5-3.31c.59-1,1.58-2.83,3-5.32q3.19-4.27,6.07-8.78T98.42,77q2.58-4.29,5.44-8.58c1.93-2.85,3.88-5.61,5.88-8.28A90.51,90.51,0,0,1,126.07,43a71.19,71.19,0,0,1,7.48-12.62c1.42-1.89,2.83-3.94,4.25-6.13a45.31,45.31,0,0,1,.39-5.48c.24-1.61,1.42-4.41,3.58-8.45l-3.12-1.43a5.15,5.15,0,0,0-2-3.3Q136,4.75,132,5.3Z"/></g></g></svg>