<svg xmlns="http://www.w3.org/2000/svg" viewBox="0 0 671 1131"><defs><style>.cls-1{fill:#fffcf3;}.cls-2{fill:none;}</style></defs><g id="Layer_2" data-name="Layer 2"><g id="Layer_1-2" data-name="Layer 1"><path class="cls-1" d="M378.19,419.58A229.78,229.78,0,0,1,393,391.16q-1.37-1.38-1-4.48a2.16,2.16,0,0,1,2.07-1.89c1.15-.12,1.61-1,1.38-2.59a7.73,7.73,0,0,1-4.31-5.33,32.33,32.33,0,0,0-2.58-7.07q1.38-4.47,2.75-6c.92-1,1.72-3.16,2.41-6.38.92-.22,1.55-.11,1.9.35s1,.58,1.89.34a9,9,0,0,1,2.59-4.82q1.89-1.72,4-3.27a27.51,27.51,0,0,0,3.79-3.44,9,9,0,0,0,2.06-5.34,15.11,15.11,0,0,1,8.79-4.48,29,29,0,0,0,9.12-2.76,32.76,32.76,0,0,1,6.72,5.17,39.83,39.83,0,0,1,5,7.23,33.93,33.93,0,0,0,5.69.69,47.4,47.4,0,0,1,5,.35q4.14,5.16,7.06,8.78t9.13,6.37v3.79a13.37,13.37,0,0,1,4.82,2.24q2.07,1.54,4,3.27a33.68,33.68,0,0,0,4,3.1,15.19,15.19,0,0,0,5.17,2.07,19.09,19.09,0,0,0,7.41,7.4,16.68,16.68,0,0,1,7.06,7.75,5.16,5.16,0,0,1,2.92,1.72,28,28,0,0,1,2.24,2.93,9.05,9.05,0,0,0,2.24,2.41,3.51,3.51,0,0,0,3.27.18q9.3,11,19.29,22.56a156.5,156.5,0,0,1,17.74,25.14,119.82,119.82,0,0,1,11.88,29.62q4.14,16,1.38,35.65a86.1,86.1,0,0,1-9.82,17.74,64.43,64.43,0,0,1-14.12,14.46,53.45,53.45,0,0,1-18.6,8.79,58.22,58.22,0,0,1-22.9,1q-13.09,2.76-22.91,1.55a91.39,91.39,0,0,1-20.15-5,40.86,40.86,0,0,1-9.64-.52,63.47,63.47,0,0,1-11-2.76q-5.51-1.87-10.68-4.13t-8.95-4.3q-4.83-1-9.48-2.07a26.46,26.46,0,0,1-8.44-3.44,66.92,66.92,0,0,0-12.74-8.27,33.81,33.81,0,0,1-11.71-9.65,18.11,18.11,0,0,1-6.54-6.37,41.25,41.25,0,0,1-4.48-9.64,58.78,58.78,0,0,1-2.41-11,40.13,40.13,0,0,1,0-10.51,47.72,47.72,0,0,1,2.06-7.58q1.38-3.78,2.93-7.4a57,57,0,0,0,2.59-7.41,22.65,22.65,0,0,0,.68-7.92A229,229,0,0,0,378.19,419.58Zm49.95,72.67a98.7,98.7,0,0,0,24.8,9.13,80.25,80.25,0,0,1,15,1.55,156.15,156.15,0,0,0,16.53,2.24,77.33,77.33,0,0,0,16.36-.35A26.54,26.54,0,0,0,514.59,499a39.42,39.42,0,0,0-3.1-14.47A72.35,72.35,0,0,0,505,472.79q-3.79-5.51-7.75-10.85a57.15,57.15,0,0,1-6.72-11.88c-1.15-.46-1.84-.63-2.07-.52s-.8-.05-1.72-.52a99.85,99.85,0,0,0-17.91-17.56q-10-7.57-20-15.5a14.4,14.4,0,0,1-4,2.24,15.6,15.6,0,0,1-4.3,1,5.6,5.6,0,0,1-3.79-1,6.51,6.51,0,0,1-2.41-4c-1.38,1.37-2.64,1.61-3.79.69a8.64,8.64,0,0,1-2.41-2.76,174.81,174.81,0,0,0-12.4,22.9A135.7,135.7,0,0,1,402.65,458a24.58,24.58,0,0,1-.35,5,15,15,0,0,1-2.06,4.31q.35,4.83,2.58,7.23a18,18,0,0,1,3.62,6.2Q417.81,486.58,428.14,492.25Z"/><rect class="cls-2" width="671" height="1131"/></g></g></svg>