<svg xmlns="http://www.w3.org/2000/svg" viewBox="0 0 671 1131"><defs><style>.cls-1{fill:#fffcf3;}.cls-2{fill:none;}</style></defs><g id="Layer_2" data-name="Layer 2"><g id="Layer_1-2" data-name="Layer 1"><path class="cls-1" d="M431.71,710.85l-12.46-5.3a49.45,49.45,0,0,0-8.22,4.74q-3.81,2.72-7.6,5.64c-2.81,2.34-5.53,4.47-8.13,6.36a32.79,32.79,0,0,1-9.79,4.69,22.37,22.37,0,0,0-1.9,2.13l-1.27,1.7a32.38,32.38,0,0,1-2.24,2.77,19.17,19.17,0,0,1-4.31,2.55q-5.78,9-13.24,19-8.73,12.14-16.94,24.86a102.45,102.45,0,0,0-12.17,25.77,38.08,38.08,0,0,0-6.15,6.5,43.87,43.87,0,0,0-4.06,6.73c-2.41,5.42-4.62,18.85-9.79,25.77s-17,32.55-12.93,34.72c.95.24,1.9.43,2.86.61a33.37,33.37,0,0,0,12.74-.24,12.1,12.1,0,0,0,4.06.81,11.5,11.5,0,0,0,3.45-.53,15.44,15.44,0,0,0,2.3-.07,26,26,0,0,1,3.76.16q13.88-5.64,26.43-22.45a141.83,141.83,0,0,0,14.64-24.35q6.15-13,11.11-24.35a27.64,27.64,0,0,1,1.51-3.31c.58-1,1.58-2.83,3-5.32q3.19-4.27,6.08-8.78t5.66-9.09q2.56-4.29,5.44-8.58t5.87-8.28a90.83,90.83,0,0,1,16.33-17.11A70.63,70.63,0,0,1,433.24,736c1.41-1.89,2.83-3.94,4.25-6.13a43.36,43.36,0,0,1,.39-5.48c.23-1.61,1.42-4.41,3.57-8.45l-3.12-1.43a5.13,5.13,0,0,0-2-3.3Q435.67,710.3,431.71,710.85Z"/><rect class="cls-2" width="671" height="1131"/></g></g></svg>