<svg xmlns="http://www.w3.org/2000/svg" viewBox="0 0 377.73 1111.25"><defs><style>.cls-1,.cls-2{fill:#fffcf3;}.cls-2{stroke:#fffcf3;stroke-miterlimit:10;stroke-width:10px;}</style></defs><g id="Layer_2" data-name="Layer 2"><g id="Layer_1-2" data-name="Layer 1"><path class="cls-1" d="M68.48,7.48,56.54,16.83q-2.35,12.75-3.91,26t-3,27.08c-1,10.63-2,20.58-3.06,29.76a236.91,236.91,0,0,1-5.11,28.69c-.22,3.56-.36,6.35-.41,8.52l-.14,6.35c-.11,5-.23,8.53-.35,10.64s-.8,6.76-2,13.81q0,32-.83,69.26-.73,44.73-.8,90t3.24,83.72c-.8,8.51-1.31,17.39-1.51,26.59q-.24,10.69.18,23.42c.8,17.34,5.59,53.63,5,79.47-.56,25.68,2.88,108.57,7,106.64.83-1.12,1.64-2.34,2.45-3.62q5.25-8.42,9.48-23.21a15.78,15.78,0,0,0,3.45-5.25,47.48,47.48,0,0,0,2.35-7.39c.64-1.43,1.21-2.82,1.7-4.25a59.65,59.65,0,0,1,2.9-6.3q7.74-38.22,9.1-101,.93-42.63-.69-84.7t-3.35-78.39c-.22-3.57-.38-7.09-.46-10.66s-.17-9.62-.29-18.15q.34-16,.34-31.94T77.68,240q-.14-14.89,0-30.35t.43-30.38q.84-38.29,4.07-70.22-.9-22.35-.44-43.7Q82,54.68,82,43c-1-5-1.75-9.66-2.35-13.91s-1.05-13.15-1.37-26.7l-3,2.1C74.36,1.61,73.32.14,72.09.11Q71.19-.91,68.48,7.48Z"/><path class="cls-1" d="M4.41,28.88,10,37.78c5,1,10,1.9,15.23,2.54s10.47,1.25,15.84,1.84c6.22.57,12,1.18,17.41,1.83a108.58,108.58,0,0,1,16.8,3.4c2.08.11,3.71.17,5,.17H84c2.93,0,5,0,6.22.1A72.77,72.77,0,0,1,98.29,49q18.64-.52,40.43-.52,26.1-.16,52.52-.88a432.56,432.56,0,0,0,48.81-3.84c5,.47,10.17.71,15.54.71q6.24,0,13.67-.53c10.1-.89,31.22-5.13,46.3-5.13s63.33-4,62.15-7.05c-.66-.61-1.39-1.2-2.14-1.79a48,48,0,0,0-13.67-6.82,9.23,9.23,0,0,0-3.1-2.52,22.08,22.08,0,0,0-4.35-1.66,22.1,22.1,0,0,0-2.5-1.22,31.33,31.33,0,0,1-3.71-2.1q-22.41-5.25-59.07-5.24-24.9,0-49.42,1.92t-45.7,3.84c-2.09.23-4.14.41-6.22.53l-10.59.52q-9.31,0-18.64.26T140,18.05q-8.69.35-17.71.53t-17.73.17a402.76,402.76,0,0,1-41-1.92q-13,1.05-25.5,1.05-6.19,0-13,.17c-2.89.82-5.61,1.49-8.08,2A133,133,0,0,1,1.3,21.55l1.27,2.27C.91,24.51.06,25.33.06,26.26-.33,26.72,1.12,27.6,4.41,28.88Z"/><path class="cls-1" d="M74.25,471.91l-11.94,9.36Q60,494,58.4,507.29t-3,27.07c-1,10.63-2,20.59-3.06,29.77a236.41,236.41,0,0,1-5.11,28.68c-.23,3.56-.37,6.35-.41,8.52l-.14,6.36c-.11,5-.23,8.52-.36,10.64s-.79,6.75-2,13.81q0,32-.82,69.25-.75,44.73-.8,90t3.23,83.71c-.8,8.52-1.3,17.4-1.5,26.59q-.24,10.71.18,23.43c.79,17.33,5.59,53.62,5,79.46-.56,25.68,2.88,108.57,7,106.65.83-1.12,1.64-2.35,2.45-3.62q5.23-8.41,9.48-23.21a15.71,15.71,0,0,0,3.44-5.25,45.57,45.57,0,0,0,2.35-7.4,43.26,43.26,0,0,0,1.7-4.25,62.21,62.21,0,0,1,2.91-6.3q7.74-38.21,9.1-101,.93-42.63-.69-84.69T84,797.09c-.22-3.58-.38-7.09-.46-10.66s-.17-9.62-.3-18.16q.36-16,.35-31.94t-.1-32c-.09-9.92-.1-20.06,0-30.34s.23-20.42.44-30.39q.84-38.29,4.07-70.22-.92-22.35-.44-43.69.24-10.62.26-22.33c-1-5-1.75-9.65-2.35-13.9s-1-13.16-1.37-26.71l-3,2.11c-.85-2.87-1.89-4.34-3.12-4.36Q77,463.52,74.25,471.91Z"/><line class="cls-2" x1="309.3" y1="36.1" x2="309.3" y2="395.96"/></g></g></svg>