<svg xmlns="http://www.w3.org/2000/svg" viewBox="0 0 671 1131"><defs><style>.cls-1{fill:#fffcf3;}.cls-2{fill:none;}</style></defs><g id="Layer_2" data-name="Layer 2"><g id="Layer_1-2" data-name="Layer 1"><path class="cls-1" d="M527.19,722l10.53-8.53a49.69,49.69,0,0,0-.34-9.48c-.41-3.09-.89-6.21-1.42-9.35-.75-3.58-1.36-7-1.81-10.17a32.4,32.4,0,0,1,.44-10.84,22.9,22.9,0,0,0-1-2.68l-.91-1.92a33.64,33.64,0,0,1-1.4-3.28,19.21,19.21,0,0,1-.23-5q-5.26-9.32-10.58-20.59-6.63-13.39-14-26.61a102.54,102.54,0,0,0-17.07-22.83,38.18,38.18,0,0,0-2.86-8.48,44,44,0,0,0-4-6.74c-3.66-4.66-14.48-12.91-18.17-20.71s-20.81-30.25-24.62-27.7c-.65.73-1.27,1.48-1.88,2.24a33.32,33.32,0,0,0-5.76,11.38,12.09,12.09,0,0,0-2.61,3.2,11.48,11.48,0,0,0-1.16,3.3,16.16,16.16,0,0,0-1,2.06,25.88,25.88,0,0,1-1.9,3.25q-1.53,14.89,7.45,33.86a142.15,142.15,0,0,0,14.65,24.35q8.58,11.5,16.31,21.22a26,26,0,0,1,2.22,2.88c.66,1,1.76,2.72,3.29,5.15,1.53,3.21,3.16,6.38,4.92,9.48s3.53,6.19,5.37,9.26c1.72,2.85,3.41,5.8,5,8.83s3.15,6.05,4.57,9.07A90.47,90.47,0,0,1,496.65,699a71.34,71.34,0,0,1,7.63,12.53q1.53,3.21,3.43,6.63a42.87,42.87,0,0,1,4.66,2.91c1.31,1,3.23,3.32,5.79,7.12l2.72-2.09a5.16,5.16,0,0,0,3.88-.25C525.47,725.79,526.29,724.49,527.19,722Z"/><rect class="cls-2" width="671" height="1131"/></g></g></svg>