<svg xmlns="http://www.w3.org/2000/svg" viewBox="0 0 165.2 158.61"><defs><style>.cls-1{fill:#fffcf3;}</style></defs><g id="Layer_2" data-name="Layer 2"><g id="Layer_1-2" data-name="Layer 1"><path class="cls-1" d="M156.37,7.18,144.88,0A49.28,49.28,0,0,0,136,3.41c-2.79,1.39-5.58,2.86-8.38,4.38q-4.71,2.82-9,5a32.75,32.75,0,0,1-10.4,3.12A21.62,21.62,0,0,0,106,17.74l-1.52,1.48a31.62,31.62,0,0,1-2.64,2.38,19.11,19.11,0,0,1-4.66,1.85q-7.09,8-16,16.71Q70.66,50.78,60.57,62.08a101.72,101.72,0,0,0-16,23.56,37.77,37.77,0,0,0-7.09,5.47,43.43,43.43,0,0,0-5.06,6c-3.22,5-7.49,17.9-13.67,23.92S-3.1,150.57.54,153.35c.9.38,1.81.71,2.73,1a33.29,33.29,0,0,0,12.63,1.74,11.75,11.75,0,0,0,3.88,1.43,11.35,11.35,0,0,0,3.49,0,15.75,15.75,0,0,0,2.29.29,27.68,27.68,0,0,1,3.69.74q14.58-3.41,29.59-18.06A142.73,142.73,0,0,0,77.1,118.77q8.09-11.85,14.75-22.33a29.07,29.07,0,0,1,2-3Q95,92,97.65,88.61q3.82-3.72,7.37-7.72t7-8.1q3.21-3.84,6.71-7.63t7.09-7.27a90.61,90.61,0,0,1,18.79-14.36A70.57,70.57,0,0,1,154,32.23q2.53-2.47,5.15-5.4a44.51,44.51,0,0,1,1.24-5.35c.48-1.56,2.09-4.14,4.84-7.79l-2.86-1.9a5.17,5.17,0,0,0-1.49-3.58C160.53,7.56,159,7.22,156.37,7.18Z"/></g></g></svg>