<svg xmlns="http://www.w3.org/2000/svg" viewBox="0 0 671 1131"><defs><style>.cls-1{fill:#fffcf3;}.cls-2{fill:none;}</style></defs><g id="Layer_2" data-name="Layer 2"><g id="Layer_1-2" data-name="Layer 1"><path class="cls-1" d="M444.67,532.34l-11.49-7.18a49.47,49.47,0,0,0-8.85,3.41q-4.18,2.08-8.39,4.39-4.71,2.81-9,5a32.86,32.86,0,0,1-10.39,3.11,20.84,20.84,0,0,0-2.22,1.81l-1.52,1.48a32.47,32.47,0,0,1-2.64,2.39,19.35,19.35,0,0,1-4.66,1.85q-7.1,8-16,16.7-10.5,10.62-20.6,21.92a102.4,102.4,0,0,0-16,23.57,37.71,37.71,0,0,0-7.09,5.46,44,44,0,0,0-5.05,6c-3.22,5-7.5,17.9-13.68,23.93s-21.82,29.51-18.17,32.29c.9.38,1.81.72,2.73,1a33.5,33.5,0,0,0,12.63,1.75,12.17,12.17,0,0,0,3.87,1.43,11.74,11.74,0,0,0,3.5,0,16.93,16.93,0,0,0,2.28.29,24.45,24.45,0,0,1,3.69.74q14.58-3.42,29.6-18.07a142.76,142.76,0,0,0,18.25-21.78q8.09-11.85,14.76-22.33a27.49,27.49,0,0,1,2-3c.74-.94,2-2.54,3.8-4.78q3.81-3.74,7.36-7.73t7-8.1c2.13-2.55,4.37-5.11,6.71-7.63s4.7-4.94,7.09-7.27a90.65,90.65,0,0,1,18.78-14.36,71.55,71.55,0,0,1,9.36-11.3q2.53-2.48,5.15-5.4a45,45,0,0,1,1.24-5.35c.49-1.56,2.09-4.14,4.85-7.79L450.65,537a5.2,5.2,0,0,0-1.5-3.59C448.83,532.72,447.34,532.38,444.67,532.34Z"/><rect class="cls-2" width="671" height="1131"/></g></g></svg>