<svg xmlns="http://www.w3.org/2000/svg" viewBox="0 0 63.89 210.79"><defs><style>.cls-1{fill:#fffcf3;}</style></defs><g id="Layer_2" data-name="Layer 2"><g id="Layer_1-2" data-name="Layer 1"><path class="cls-1" d="M50.4,1.81l-13.53.67a49.32,49.32,0,0,0-5.32,7.85q-2.24,4.11-4.38,8.39c-1.5,3.33-3,6.44-4.53,9.27a32.77,32.77,0,0,1-6.76,8.5,19.43,19.43,0,0,0-.78,2.75l-.41,2.08a31.72,31.72,0,0,1-.8,3.47A19.42,19.42,0,0,1,11.12,49Q9.86,59.59,7.51,71.83q-2.56,14.72-4.4,29.76a102.57,102.57,0,0,0,.3,28.5,37.75,37.75,0,0,0-2.7,8.53A44.1,44.1,0,0,0,0,146.45c.2,5.92,4.07,19,2.44,27.45S1.38,210.59,6,210.79c1-.21,1.89-.45,2.84-.71a33.15,33.15,0,0,0,11.36-5.78,11.78,11.78,0,0,0,4-1,11.41,11.41,0,0,0,2.88-2,16,16,0,0,0,2-1.07,24.69,24.69,0,0,1,3.45-1.5q10-11.13,14-31.73a141.94,141.94,0,0,0,2.54-28.31q-.12-14.34-.63-26.75a27.79,27.79,0,0,1-.09-3.64q.09-1.8.38-6.1,1-5.23,1.63-10.55c.43-3.54.8-7.09,1.13-10.64q.44-5,1.15-10.1c.49-3.41,1-6.74,1.67-10a91,91,0,0,1,7.22-22.52,71,71,0,0,1,1.23-14.61c.45-2.33.83-4.78,1.15-7.38a42.21,42.21,0,0,1-2-5.1c-.49-1.55-.65-4.59-.47-9.16l-3.44.08A5.1,5.1,0,0,0,54.67.1Q53.72-.42,50.4,1.81Z"/></g></g></svg>