<svg xmlns="http://www.w3.org/2000/svg" viewBox="0 0 671 1131"><defs><style>.cls-1{fill:#fffcf3;}.cls-2,.cls-3{fill:none;}.cls-3{stroke:#fffcf3;stroke-miterlimit:10;stroke-width:10px;}</style></defs><g id="Layer_2" data-name="Layer 2"><g id="Layer_1-2" data-name="Layer 1"><path class="cls-1" d="M440.47,715.46l-2.14-1a5.13,5.13,0,0,0-2-3.31q-.63-.88-4.59-.32l-12.46-5.31A49.49,49.49,0,0,0,411,710.3q-3.07,2.19-6.14,4.52l-1.46,1.11c-2.23,1.86-4.41,3.58-6.51,5.16l-1.62,1.2a32.49,32.49,0,0,1-9.78,4.69,20.24,20.24,0,0,0-1.91,2.14l-1.27,1.7a31.8,31.8,0,0,1-2.24,2.76,19.19,19.19,0,0,1-4.31,2.56q-5.78,9-13.23,19-8.73,12.12-16.95,24.85a102.35,102.35,0,0,0-12.17,25.78,37.35,37.35,0,0,0-6.15,6.5,43.69,43.69,0,0,0-4.06,6.73c-2.41,5.42-4.62,18.84-9.79,25.76s-17,32.55-12.93,34.72c.95.24,1.9.43,2.86.61a33.43,33.43,0,0,0,12.75-.24,12,12,0,0,0,4.05.81,11.45,11.45,0,0,0,3.45-.52,17.13,17.13,0,0,0,2.31-.07,24.49,24.49,0,0,1,3.75.16q13.88-5.64,26.43-22.45a143,143,0,0,0,14.65-24.36q6.14-13,11.1-24.35a28.38,28.38,0,0,1,1.51-3.31c.58-1,1.58-2.83,3-5.32q3.19-4.27,6.08-8.78t5.66-9.08q2.56-4.29,5.44-8.59t5.87-8.28q1.35-1.8,2.72-3.49a87.59,87.59,0,0,1,13.61-13.62A71.14,71.14,0,0,1,433.24,736c1.41-1.9,2.83-3.94,4.25-6.14a45.46,45.46,0,0,1,.39-5.48s0,0,0-.06A15.42,15.42,0,0,1,439,721q.88-2.09,2.48-5.06Z"/><path class="cls-2" d="M0,0V1131H671V0ZM277.23,114.6c1.39-1.25,3.24-2.8,5.63-4.76A211.13,211.13,0,0,0,304.2,96c6.46-4.76,13.4-10,20.74-15.65q9.62-7.22,19-14.1t18.9-13l13.45,1.52c4.67-2.23,7-3,6.93-2.2.76.72.49,2.2-.78,4.38l3.25.55c-8.35,8.12-13.66,13.57-16,16.45s-4.76,6-7.3,9.52Q355,90.4,348.12,96.48q-9.27,8.22-18.45,17.11-17.42.39-34.65,1.74-10.56.83-20.48,1.65Zm-246,271.75-21.57-20c5.88-5.72,11.06-10.61,14.66-13.81,16.68-14.81,36.57-38.89,47-49.5q7.79-7.71,14.68-13.84,3.87-3.44,7.73-6.66-.11,24.33-.67,51.58Q84.95,341.64,76.63,349,51.76,371.12,31.25,386.35Z"/><path class="cls-1" d="M498.14,832.4a142.22,142.22,0,0,0-12.45-25.54q-7.53-12.21-14.38-22.57a27.89,27.89,0,0,1-2-3.07c-.56-1.06-1.51-2.87-2.82-5.42-1.23-3.33-2.58-6.63-4.06-9.87s-3-6.48-4.54-9.7c-1.46-3-2.88-6.07-4.23-9.24s-2.6-6.31-3.75-9.43a90.6,90.6,0,0,1-5.46-23q-1.51-2.43-2.82-4.89A70.81,70.81,0,0,1,438,701.4q-1.23-3.33-2.83-6.91a42.92,42.92,0,0,1-4.38-3.31c-1.23-1.07-2.93-3.59-5.14-7.6l-2.9,1.85a5.12,5.12,0,0,0-3.88-.1c-.72,0-1.65,1.25-2.77,3.67l-11.23,7.57a48.94,48.94,0,0,0-.5,9.47q.19,4.35.54,8.78c0,.22,0,.45.05.67.43,3.63.74,7.07.91,10.28a32.62,32.62,0,0,1-1.39,10.76,20.49,20.49,0,0,0,.75,2.76l.73,2a31,31,0,0,1,1.1,3.39,19.24,19.24,0,0,1-.21,5c.43.94.85,1.89,1.27,2.86q2,4.63,4,9.68,1.73,4.31,3.42,8.9Q421,785,427.18,798.86a102.34,102.34,0,0,0,15,24.24,37.41,37.41,0,0,0,2.11,8.7,44.09,44.09,0,0,0,3.43,7.07C451,843.84,461,853,464,861.1s18.07,32,22.09,29.76c.71-.67,1.39-1.36,2.06-2.07A33.34,33.34,0,0,0,494.88,878a12.1,12.1,0,0,0,2.89-3,11.7,11.7,0,0,0,1.44-3.18,15.41,15.41,0,0,0,1.19-2,25.68,25.68,0,0,1,2.18-3.07Q505.4,852.09,498.14,832.4Z"/><path class="cls-2" d="M0,0V1131H671V0ZM277.23,114.6c1.39-1.25,3.24-2.8,5.63-4.76A211.13,211.13,0,0,0,304.2,96c6.46-4.76,13.4-10,20.74-15.65q9.62-7.22,19-14.1t18.9-13l13.45,1.52c4.67-2.23,7-3,6.93-2.2.76.72.49,2.2-.78,4.38l3.25.55c-8.35,8.12-13.66,13.57-16,16.45s-4.76,6-7.3,9.52Q355,90.4,348.12,96.48q-9.27,8.22-18.45,17.11-17.42.39-34.65,1.74-10.56.83-20.48,1.65Zm-246,271.75-21.57-20c5.88-5.72,11.06-10.61,14.66-13.81,16.68-14.81,36.57-38.89,47-49.5q7.79-7.71,14.68-13.84,3.87-3.44,7.73-6.66-.11,24.33-.67,51.58Q84.95,341.64,76.63,349,51.76,371.12,31.25,386.35Z"/><path class="cls-1" d="M537.38,704c-.41-3.09-.89-6.2-1.42-9.35-.75-3.58-1.36-7-1.81-10.16a32.72,32.72,0,0,1,.44-10.85,22.46,22.46,0,0,0-1-2.68l-.91-1.92a32.71,32.71,0,0,1-1.4-3.27,19.3,19.3,0,0,1-.23-5q-5.26-9.32-10.58-20.58-6.63-13.39-14-26.62a102.25,102.25,0,0,0-17.07-22.82,38.26,38.26,0,0,0-2.86-8.49,44,44,0,0,0-4-6.73c-3.66-4.67-14.47-12.91-18.16-20.71h0c-1.67-3.52-6.09-10-10.8-15.92-1.1-1.38-2.23-2.73-3.33-4-.64-.72-1.27-1.42-1.89-2.08-3.81-4-7.16-6.67-8.6-5.71q-.62.69-1.2,1.41l-.68.84a33.54,33.54,0,0,0-5.76,11.37,12.09,12.09,0,0,0-2.61,3.2,11.2,11.2,0,0,0-1.1,3,2,2,0,0,0-.06.26,15.63,15.63,0,0,0-1,2.07,26.74,26.74,0,0,1-1.9,3.24,40.77,40.77,0,0,0-.22,4.31,56.47,56.47,0,0,0,2.25,15.31,90.11,90.11,0,0,0,5.42,14.25,142.5,142.5,0,0,0,14.66,24.34l.58.77q8.24,11.06,15.72,20.45a26.14,26.14,0,0,1,2.22,2.89c.66,1,1.76,2.72,3.3,5.14q2.28,4.83,4.91,9.48c1.74,3.11,3.54,6.2,5.37,9.26q2.6,4.27,5,8.83c1.61,3,3.14,6.06,4.56,9.07A90.54,90.54,0,0,1,496.65,699a71.57,71.57,0,0,1,7.64,12.52q1.51,3.21,3.42,6.63a46.21,46.21,0,0,1,4.66,2.91c1.32,1,3.23,3.33,5.79,7.12l2.72-2.09a5.16,5.16,0,0,0,3.88-.25q1.08-.14,2.43-3.9l10.53-8.52A49.79,49.79,0,0,0,537.38,704Z"/><path class="cls-2" d="M0,0V1131H671V0ZM277.23,114.6c1.39-1.25,3.24-2.8,5.63-4.76A211.13,211.13,0,0,0,304.2,96c6.46-4.76,13.4-10,20.74-15.65q9.62-7.22,19-14.1t18.9-13l13.45,1.52c4.67-2.23,7-3,6.93-2.2.76.72.49,2.2-.78,4.38l3.25.55c-8.35,8.12-13.66,13.57-16,16.45s-4.76,6-7.3,9.52Q355,90.4,348.12,96.48q-9.27,8.22-18.45,17.11-17.42.39-34.65,1.74-10.56.83-20.48,1.65Zm-246,271.75-21.57-20c5.88-5.72,11.06-10.61,14.66-13.81,16.68-14.81,36.57-38.89,47-49.5q7.79-7.71,14.68-13.84,3.87-3.44,7.73-6.66-.11,24.33-.67,51.58Q84.95,341.64,76.63,349,51.76,371.12,31.25,386.35Z"/><path class="cls-1" d="M450.65,537a5.38,5.38,0,0,0-.47-2.1,5.07,5.07,0,0,0-1-1.48,1.37,1.37,0,0,0-.86-.6,12.05,12.05,0,0,0-3.62-.44l-6.18-3.86-5.31-3.31a48.69,48.69,0,0,0-8.85,3.4q-4.18,2.1-8.39,4.39-4.71,2.81-9,5c-.2.1-.39.2-.6.29a33.29,33.29,0,0,1-9.8,2.82,22.16,22.16,0,0,0-2.22,1.81l-1.51,1.48a31.93,31.93,0,0,1-2.65,2.39,19.4,19.4,0,0,1-4.65,1.85q-7.11,8-16,16.7-10.5,10.62-20.6,21.92a102.61,102.61,0,0,0-16,23.57,38.13,38.13,0,0,0-7.09,5.46,45.36,45.36,0,0,0-5.05,6c-3.22,5-7.5,17.9-13.68,23.93s-21.82,29.52-18.17,32.29c.9.38,1.81.72,2.73,1a33.29,33.29,0,0,0,12.63,1.74,11.89,11.89,0,0,0,3.88,1.43,11.35,11.35,0,0,0,3.49,0,15.63,15.63,0,0,0,2.28.29,24.22,24.22,0,0,1,3.69.74q14.58-3.42,29.6-18.07a142.18,142.18,0,0,0,18.25-21.78q8.09-11.85,14.76-22.32a27,27,0,0,1,2-3c.74-1,2-2.55,3.8-4.79q3.81-3.72,7.36-7.73t7-8.09q3.19-3.84,6.71-7.64c.63-.68,1.27-1.35,1.91-2q2.57-2.7,5.18-5.25a96.81,96.81,0,0,1,13.27-10.93q2.75-1.87,5.52-3.43a71.41,71.41,0,0,1,9.35-11.3q2.53-2.48,5.16-5.39c.05-.32.11-.63.17-.94a39.47,39.47,0,0,1,1.06-4.42,12.43,12.43,0,0,1,1.18-2.45,59.48,59.48,0,0,1,3.67-5.34Z"/><path class="cls-2" d="M0,0V1131H671V0ZM277.23,114.6c1.39-1.25,3.24-2.8,5.63-4.76A211.13,211.13,0,0,0,304.2,96c6.46-4.76,13.4-10,20.74-15.65q9.62-7.22,19-14.1t18.9-13l13.45,1.52c4.67-2.23,7-3,6.93-2.2.76.72.49,2.2-.78,4.38l3.25.55c-8.35,8.12-13.66,13.57-16,16.45s-4.76,6-7.3,9.52Q355,90.4,348.12,96.48q-9.27,8.22-18.45,17.11-17.42.39-34.65,1.74-10.56.83-20.48,1.65Zm-246,271.75-21.57-20c5.88-5.72,11.06-10.61,14.66-13.81,16.68-14.81,36.57-38.89,47-49.5q7.79-7.71,14.68-13.84,3.87-3.44,7.73-6.66-.11,24.33-.67,51.58Q84.95,341.64,76.63,349,51.76,371.12,31.25,386.35Z"/><path class="cls-1" d="M456.76,555.3a11.59,11.59,0,0,1-.42-2.59,54.9,54.9,0,0,1,0-6.57l-3.43.08a5.1,5.1,0,0,0-3-2,2.27,2.27,0,0,0-.25-.06q-1-.52-4.27,1.71l-13.53.67c-.35.42-.69.85-1,1.28a47.37,47.37,0,0,0-4.31,6.58l-1.32,2.44c-1,2-2,3.93-3.06,5.94q-2.26,5-4.54,9.28a32.69,32.69,0,0,1-6.76,8.49,23.63,23.63,0,0,0-.78,2.75l-.4,2.08c-.25,1.28-.47,2.26-.66,2.95-.05.2-.1.37-.15.52A19.64,19.64,0,0,1,406,593q-1.26,10.62-3.62,22.86-2.57,14.71-4.39,29.76a101.81,101.81,0,0,0,.3,28.5,37.57,37.57,0,0,0-2.7,8.53,44.05,44.05,0,0,0-.72,7.83c.2,5.93,4.07,19,2.44,27.45-.17.86-.31,1.93-.43,3.16-1,10.76-.16,33.56,3.95,33.73,1-.2,1.9-.44,2.84-.7a31.09,31.09,0,0,0,4.39-1.59,34.49,34.49,0,0,0,7-4.19,12.19,12.19,0,0,0,4-1,11.52,11.52,0,0,0,2.88-2,16,16,0,0,0,2-1.07,25.26,25.26,0,0,1,3.45-1.5,53.67,53.67,0,0,0,10.45-18.45c.39-1.08.76-2.19,1.09-3.33.55-1.77,1-3.61,1.49-5.51.34-1.44.66-2.92.95-4.44.09-.45.17-.91.25-1.36a141.22,141.22,0,0,0,2.3-26.95q-.14-14.34-.64-26.75a29.6,29.6,0,0,1-.09-3.64c.07-1.2.19-3.23.38-6.09q1-5.25,1.64-10.55c.42-3.54.8-7.09,1.12-10.65q.45-5,1.15-10.1c.17-1.16.34-2.31.53-3.45.34-2.22.72-4.4,1.14-6.56a90.31,90.31,0,0,1,7.23-22.52,71.1,71.1,0,0,1,1.22-14.62q.68-3.48,1.15-7.37A46.66,46.66,0,0,1,456.76,555.3Z"/><path class="cls-2" d="M0,0V1131H671V0ZM277.23,114.6c1.39-1.25,3.24-2.8,5.63-4.76A211.13,211.13,0,0,0,304.2,96c6.46-4.76,13.4-10,20.74-15.65q9.62-7.22,19-14.1t18.9-13l13.45,1.52c4.67-2.23,7-3,6.93-2.2.76.72.49,2.2-.78,4.38l3.25.55c-8.35,8.12-13.66,13.57-16,16.45s-4.76,6-7.3,9.52Q355,90.4,348.12,96.48q-9.27,8.22-18.45,17.11-17.42.39-34.65,1.74-10.56.83-20.48,1.65Zm-246,271.75-21.57-20c5.88-5.72,11.06-10.61,14.66-13.81,16.68-14.81,36.57-38.89,47-49.5q7.79-7.71,14.68-13.84,3.87-3.44,7.73-6.66-.11,24.33-.67,51.58Q84.95,341.64,76.63,349,51.76,371.12,31.25,386.35Z"/><path class="cls-1" d="M558.34,476.75a120.55,120.55,0,0,0-11.89-29.62A156.32,156.32,0,0,0,528.71,422q-10-11.53-19.28-22.56a3.55,3.55,0,0,1-3.28-.17,9.21,9.21,0,0,1-2.24-2.41,26.9,26.9,0,0,0-2.23-2.93,5.16,5.16,0,0,0-2.93-1.72,16.58,16.58,0,0,0-7.06-7.75,19.19,19.19,0,0,1-7.41-7.41,15.19,15.19,0,0,1-5.17-2.07,32.66,32.66,0,0,1-4-3.1q-1.89-1.71-4-3.27a13.46,13.46,0,0,0-4.82-2.24v-3.79q-6.19-2.74-9.13-6.37l-7.06-8.78a47.4,47.4,0,0,0-5-.35,34.56,34.56,0,0,1-5.68-.68,40.07,40.07,0,0,0-5-7.24,32.76,32.76,0,0,0-6.72-5.16,29.3,29.3,0,0,1-9.12,2.75,15.17,15.17,0,0,0-8.79,4.48,9,9,0,0,1-2.06,5.34A26.94,26.94,0,0,1,404,350q-2.07,1.56-4,3.27a9.07,9.07,0,0,0-2.59,4.83c-.91.23-1.55.12-1.89-.35s-1-.57-1.9-.34c-.68,3.22-1.49,5.34-2.41,6.37s-1.83,3.05-2.75,6a32.44,32.44,0,0,1,2.58,7.06,7.77,7.77,0,0,0,4.31,5.34q.34,2.42-1.38,2.58a2.16,2.16,0,0,0-2.07,1.89c-.22,2.07.12,3.57,1,4.48a229.13,229.13,0,0,0-14.81,28.42A226.3,226.3,0,0,1,364.57,446c-.38.66-.78,1.31-1.18,2a22.72,22.72,0,0,1-.69,7.93,55.45,55.45,0,0,1-2.59,7.4c-1,2.41-2,4.88-2.92,7.41a46.62,46.62,0,0,0-2.07,7.57,40.13,40.13,0,0,0,0,10.51,58.78,58.78,0,0,0,2.41,11,41.32,41.32,0,0,0,4.48,9.65,18.27,18.27,0,0,0,6.54,6.37,33.9,33.9,0,0,0,11.71,9.64A67.81,67.81,0,0,1,393,533.76a26.18,26.18,0,0,0,8.43,3.44c1.61.36,3.24.72,4.89,1.07l4.59,1q3.79,2.07,8.95,4.3,4.13,1.8,8.47,3.36c.73.27,1.47.52,2.21.78l.23.08a64.64,64.64,0,0,0,10.79,2.67,49.72,49.72,0,0,0,6,.6,32.78,32.78,0,0,0,3.62-.08c1.72.63,3.42,1.21,5.12,1.73,2.69.82,5.34,1.52,8,2.07q3.56.76,7,1.19,9.83,1.21,22.91-1.55a58.09,58.09,0,0,0,22.91-1,53.47,53.47,0,0,0,18.59-8.78,65,65,0,0,0,14.13-14.47,86.26,86.26,0,0,0,9.81-17.74Q562.47,492.77,558.34,476.75Zm-57.53,28.08a78,78,0,0,1-16.36.34,156.15,156.15,0,0,1-16.53-2.24,80.25,80.25,0,0,0-15-1.55,98.7,98.7,0,0,1-24.8-9.13q-10.33-5.67-21.7-11.53a17.85,17.85,0,0,0-3.62-6.2q-2.24-2.41-2.58-7.24a15.36,15.36,0,0,0,2.07-4.3,25.73,25.73,0,0,0,.34-5,135.61,135.61,0,0,0,13.09-22.9,175.49,175.49,0,0,1,12.4-22.91,8.64,8.64,0,0,0,2.41,2.76q1.72,1.38,3.79-.69a6.51,6.51,0,0,0,2.41,4,5.55,5.55,0,0,0,3.79,1,15.17,15.17,0,0,0,4.3-1,14.4,14.4,0,0,0,4-2.24q10,7.94,20,15.5A99.57,99.57,0,0,1,486.69,449c.92.46,1.5.63,1.73.51s.92.06,2.06.52a56.64,56.64,0,0,0,6.72,11.88q4,5.35,7.75,10.85a72.35,72.35,0,0,1,6.54,11.71,39.27,39.27,0,0,1,3.1,14.47A26.56,26.56,0,0,1,500.81,504.83Z"/><path class="cls-2" d="M0,0V1131H671V0ZM277.23,114.6c1.39-1.25,3.24-2.8,5.63-4.76A211.13,211.13,0,0,0,304.2,96c6.46-4.76,13.4-10,20.74-15.65q9.62-7.22,19-14.1t18.9-13l13.45,1.52c4.67-2.23,7-3,6.93-2.2.76.72.49,2.2-.78,4.38l3.25.55c-8.35,8.12-13.66,13.57-16,16.45s-4.76,6-7.3,9.52Q355,90.4,348.12,96.48q-9.27,8.22-18.45,17.11-17.42.39-34.65,1.74-10.56.83-20.48,1.65Zm-246,271.75-21.57-20c5.88-5.72,11.06-10.61,14.66-13.81,16.68-14.81,36.57-38.89,47-49.5q7.79-7.71,14.68-13.84,3.87-3.44,7.73-6.66-.11,24.33-.67,51.58Q84.95,341.64,76.63,349,51.76,371.12,31.25,386.35Z"/><path class="cls-1" d="M136.81,514.09q-1.6-42.15-3.35-78.4c-.22-3.57-.38-7.09-.46-10.66s-.17-9.62-.3-18.15q.36-16,.35-31.94T133,343q-.13-14.89,0-30.35.06-8.62.2-17.09.1-6.69.24-13.29.47-21,1.63-40.07,1-15.74,2.44-30.15-.91-22.35-.44-43.69.2-8.52.24-17.75c0-1.51,0-3,0-4.58-1-5-1.75-9.65-2.35-13.91-.33-2.33-.61-6-.84-11q-.31-6.36-.53-15.67l-3,2.1c-.85-2.86-1.89-4.33-3.12-4.36q-.9-1-3.61,7.37l-11.94,9.36-.09.48q-2.3,12.51-3.82,25.54c0,.15,0,.3-.05.45q-1.53,13.08-3,26.62c-1,10.63-2,20.58-3.06,29.76a236.91,236.91,0,0,1-5.11,28.69c-.23,3.56-.36,6.35-.41,8.52l-.14,6.35c-.11,5-.23,8.53-.35,10.65s-.8,6.75-2,13.81c0,3.87,0,7.79,0,11.78q-.11,24.33-.67,51.58Q93,337,93,340q-.75,44.73-.8,90T95.4,513.7c-.8,8.51-1.3,17.39-1.5,26.59q-.24,10.69.18,23.42c.8,17.34,5.59,53.63,5,79.47-.33,15.31.75,50.93,2.54,76.81v0c1.23,17.53,2.77,30.57,4.42,29.79.83-1.12,1.64-2.34,2.45-3.61Q113.76,737.8,118,723a15.78,15.78,0,0,0,3.45-5.25,46.48,46.48,0,0,0,2.34-7.39c.65-1.43,1.22-2.82,1.71-4.25a57.63,57.63,0,0,1,2.9-6.3q7.74-38.22,9.1-101,.31-14,.33-27.93Q137.9,542.34,136.81,514.09Z"/><path class="cls-1" d="M433,134.77c-.66-.61-1.39-1.21-2.14-1.8a47.85,47.85,0,0,0-13.67-6.81,9.2,9.2,0,0,0-3.11-2.53,23,23,0,0,0-4.34-1.66,23.93,23.93,0,0,0-2.5-1.22,31.33,31.33,0,0,1-3.71-2.1q-22.41-5.24-59.07-5.24-7.4,0-14.77.18-17.42.39-34.65,1.74-10.56.83-20.48,1.65-13.19,1.09-25.23,2.19c-2.08.23-4.13.41-6.21.53s-5.61.29-10.59.52q-9.31,0-18.64.27t-18.65.61q-8.68.33-17.71.52t-17.73.17q-13.54,0-25.73-.71-8-.45-15.3-1.21-3.54.28-7,.49-9.39.56-18.47.56-6.19,0-13,.18c-2.9.81-5.61,1.48-8.08,2a133,133,0,0,1-15.57,1.49l1.27,2.27c-1.66.69-2.51,1.51-2.51,2.44q-.59.7,4.35,2.62l5.61,8.91c5,1,10,1.89,15.23,2.53S91,144.61,96.36,145.2c4,.37,7.84.75,11.49,1.15q3,.33,5.92.68a107.48,107.48,0,0,1,16.8,3.41c2.08.11,3.71.16,5,.16h3.71c2.93,0,5,0,6.22.1a72.77,72.77,0,0,1,8.08,1.3q18.65-.51,40.43-.51,20.23-.13,40.67-.6,5.91-.13,11.85-.29,23-.6,43-3.07,2.94-.36,5.81-.76c5,.46,10.17.7,15.54.7q6.24,0,13.66-.53c8.77-.77,25.84-4.06,40.05-4.92,2.17-.13,4.27-.2,6.26-.2C385.83,141.82,434.16,137.83,433,134.77Z"/><line class="cls-3" x1="364.57" y1="139.14" x2="364.57" y2="499"/><path class="cls-2" d="M0,0V1131H671V0ZM277.23,114.6c1.39-1.25,3.24-2.8,5.63-4.76A211.13,211.13,0,0,0,304.2,96c6.46-4.76,13.4-10,20.74-15.65q9.62-7.22,19-14.1t18.9-13l13.45,1.52c4.67-2.23,7-3,6.93-2.2.76.72.49,2.2-.78,4.38l3.25.55c-8.35,8.12-13.66,13.57-16,16.45s-4.76,6-7.3,9.52Q355,90.4,348.12,96.48q-9.27,8.22-18.45,17.11-17.42.39-34.65,1.74-10.56.83-20.48,1.65Zm-246,271.75-21.57-20c5.88-5.72,11.06-10.61,14.66-13.81,16.68-14.81,36.57-38.89,47-49.5q7.79-7.71,14.68-13.84,3.87-3.44,7.73-6.66-.11,24.33-.67,51.58Q84.95,341.64,76.63,349,51.76,371.12,31.25,386.35Z"/><path class="cls-1" d="M142.58,978.52q-1.61-42.15-3.35-78.4c-.22-3.57-.38-7.09-.46-10.65s-.17-9.62-.3-18.16q.34-16,.35-31.94t-.11-32q-.12-14.89,0-30.34t.44-30.39q.84-38.3,4.06-70.22-.9-22.35-.43-43.69.24-10.62.25-22.33c-1-5-1.74-9.65-2.34-13.91s-1-13.15-1.37-26.7l-1.46,1-1.58,1.09c-.86-2.86-1.9-4.33-3.12-4.35q-.9-1-3.61,7.36l-11.94,9.36q-2.35,12.74-3.91,26t-3,27.07c-1,10.63-2,20.59-3.06,29.77a236.84,236.84,0,0,1-5.12,28.68c-.22,3.56-.36,6.35-.4,8.52l-.14,6.36c-.09,4-.18,7.11-.29,9.26v0c0,.5-.05.94-.07,1.34-.12,2.17-.79,6.75-2,13.81q0,32-.83,69.25-.74,44.73-.79,90t3.23,83.71c-.8,8.52-1.3,17.4-1.5,26.59q-.24,10.69.18,23.43c.79,17.33,5.59,53.62,5,79.46-.12,5.58-.05,13.86.17,23.39h34.15q3.24-29.25,4.08-67.79Q144.2,1020.58,142.58,978.52Z"/><path class="cls-1" d="M295,115.33q-10.56.83-20.48,1.65l-1.42,1.26c-3.23,2.87-5.52,4.86-6.94,6s-4.77,3.49-10,6.9q-10.25,9.53-21.52,19.72-10.9,9.87-22.74,20.38-28.71,25.78-57.32,52.27Q144.37,233,135,242.19q-16.93,16.56-31.21,32.3-5,3.84-10,8-.11,24.33-.67,51.58,18.78-17.26,36.59-35.13l3.43-3.43q23.64-23.7,44-44.47c2.12-2.22,4.24-4.38,6.44-6.51s6-5.74,11.27-10.82q10.31-9.15,20.4-18.51t20.1-18.79q9.33-8.8,19.14-17.8t19.47-17.55q7.94-7,15.62-13.57,16.25-13.8,31.29-25.2,4.43-4.44,8.87-8.74Q312.26,114,295,115.33Z"/></g></g></svg>