<svg xmlns="http://www.w3.org/2000/svg" viewBox="0 0 671 1131"><defs><style>.cls-1{fill:#fffcf3;}.cls-2{fill:none;}</style></defs><g id="Layer_2" data-name="Layer 2"><g id="Layer_1-2" data-name="Layer 1"><path class="cls-1" d="M416.08,689l-11.23,7.57a48.16,48.16,0,0,0-.5,9.47c.13,3.12.33,6.26.59,9.44.43,3.63.74,7.07.91,10.29a32.68,32.68,0,0,1-1.4,10.76,22.61,22.61,0,0,0,.75,2.76l.74,2a31.79,31.79,0,0,1,1.1,3.38,19.32,19.32,0,0,1-.21,5q4.43,9.75,8.73,21.44Q421,785,427.18,798.85a102.4,102.4,0,0,0,15,24.25,38,38,0,0,0,2.1,8.7,44.56,44.56,0,0,0,3.44,7.06C451,843.83,461,853,464,861.1s18.06,32,22.08,29.76c.72-.67,1.4-1.36,2.07-2.07A33.34,33.34,0,0,0,494.88,878a11.86,11.86,0,0,0,2.88-3,11.7,11.7,0,0,0,1.45-3.18,16.13,16.13,0,0,0,1.19-2,24.53,24.53,0,0,1,2.18-3.07q2.82-14.7-4.44-34.39a142.57,142.57,0,0,0-12.45-25.54q-7.53-12.21-14.38-22.58a28.74,28.74,0,0,1-2-3.06c-.56-1.07-1.51-2.87-2.82-5.42q-1.84-5-4.06-9.87t-4.54-9.7c-1.46-3-2.88-6.08-4.23-9.24s-2.6-6.31-3.75-9.44a90.08,90.08,0,0,1-5.46-23A70.69,70.69,0,0,1,438,701.4q-1.23-3.33-2.83-6.91a44.43,44.43,0,0,1-4.38-3.31c-1.23-1.08-2.93-3.59-5.14-7.6l-2.9,1.84a5.16,5.16,0,0,0-3.88-.09C418.13,685.35,417.2,686.58,416.08,689Z"/><rect class="cls-2" width="671" height="1131"/></g></g></svg>