<svg xmlns="http://www.w3.org/2000/svg" viewBox="0 0 671 1131"><defs><style>.cls-1{fill:#fffcf3;}.cls-2{fill:none;}</style></defs><g id="Layer_2" data-name="Layer 2"><g id="Layer_1-2" data-name="Layer 1"><path class="cls-1" d="M445.32,545.84l-13.53.67a49.38,49.38,0,0,0-5.33,7.85q-2.23,4.11-4.37,8.39c-1.51,3.33-3,6.43-4.54,9.27a32.58,32.58,0,0,1-6.76,8.49,21.78,21.78,0,0,0-.78,2.75l-.4,2.09a33.63,33.63,0,0,1-.81,3.47A19.42,19.42,0,0,1,406,593q-1.25,10.62-3.61,22.86-2.57,14.71-4.39,29.76a102.2,102.2,0,0,0,.29,28.5,37.73,37.73,0,0,0-2.69,8.53,44.05,44.05,0,0,0-.72,7.83c.2,5.92,4.07,19,2.44,27.45s-1.06,36.69,3.52,36.89c1-.21,1.9-.45,2.84-.71a33.15,33.15,0,0,0,11.36-5.78,11.71,11.71,0,0,0,4-1,11,11,0,0,0,2.88-2,14.86,14.86,0,0,0,2-1.06,25.26,25.26,0,0,1,3.45-1.5q10-11.13,14-31.73A142.69,142.69,0,0,0,444,682.71q-.14-14.34-.64-26.75a29.69,29.69,0,0,1-.09-3.64c.07-1.2.19-3.23.38-6.1q1-5.24,1.63-10.55T446.38,625c.3-3.32.68-6.7,1.15-10.1s1-6.75,1.67-10a91,91,0,0,1,7.22-22.52,71.75,71.75,0,0,1,1.23-14.61c.45-2.33.83-4.78,1.15-7.38a43.93,43.93,0,0,1-2-5.1c-.49-1.55-.65-4.59-.47-9.16l-3.43.08a5.15,5.15,0,0,0-3.27-2.09Q448.63,543.61,445.32,545.84Z"/><rect class="cls-2" width="671" height="1131"/></g></g></svg>