<svg xmlns="http://www.w3.org/2000/svg" viewBox="0 0 671 1131"><defs><style>.cls-1{fill:#fffcf3;}.cls-2,.cls-3{fill:none;}.cls-2{stroke:#fffcf3;stroke-miterlimit:10;stroke-width:10px;}</style></defs><g id="Layer_2" data-name="Layer 2"><g id="Layer_1-2" data-name="Layer 1"><path class="cls-1" d="M136.81,514.09q-1.6-42.15-3.35-78.4c-.22-3.57-.38-7.09-.46-10.66s-.17-9.62-.3-18.15q.36-16,.35-31.94T133,343q-.13-14.89,0-30.35.06-8.62.2-17.09.1-6.69.24-13.29.47-21,1.63-40.07,1-15.74,2.44-30.15-.91-22.35-.44-43.69.2-8.52.24-17.75c0-1.51,0-3,0-4.58-1-5-1.75-9.65-2.35-13.91-.33-2.33-.61-6-.84-11q-.31-6.36-.53-15.67l-3,2.1c-.85-2.86-1.89-4.33-3.12-4.36q-.9-1-3.61,7.37l-11.94,9.36-.09.48q-2.3,12.51-3.82,25.54c0,.15,0,.3-.05.45q-1.53,13.08-3,26.62c-1,10.63-2,20.58-3.06,29.76a236.91,236.91,0,0,1-5.11,28.69c-.23,3.56-.36,6.35-.41,8.52l-.14,6.35c-.11,5-.23,8.53-.35,10.65s-.8,6.75-2,13.81c0,3.87,0,7.79,0,11.78q-.11,24.33-.67,51.58Q93,337,93,340q-.75,44.73-.8,90T95.4,513.7c-.8,8.51-1.3,17.39-1.5,26.59q-.24,10.69.18,23.42c.8,17.34,5.59,53.63,5,79.47-.33,15.31.75,50.93,2.54,76.81v0c1.23,17.53,2.77,30.57,4.42,29.79.83-1.12,1.64-2.34,2.45-3.61Q113.76,737.8,118,723a15.78,15.78,0,0,0,3.45-5.25,46.48,46.48,0,0,0,2.34-7.39c.65-1.43,1.22-2.82,1.71-4.25a57.63,57.63,0,0,1,2.9-6.3q7.74-38.22,9.1-101,.31-14,.33-27.93Q137.9,542.34,136.81,514.09Z"/><path class="cls-1" d="M433,134.77c-.66-.61-1.39-1.21-2.14-1.8a47.85,47.85,0,0,0-13.67-6.81,9.2,9.2,0,0,0-3.11-2.53,23,23,0,0,0-4.34-1.66,23.93,23.93,0,0,0-2.5-1.22,31.33,31.33,0,0,1-3.71-2.1q-22.41-5.24-59.07-5.24-7.4,0-14.77.18-17.42.39-34.65,1.74-10.56.83-20.48,1.65-13.19,1.09-25.23,2.19c-2.08.23-4.13.41-6.21.53s-5.61.29-10.59.52q-9.31,0-18.64.27t-18.65.61q-8.68.33-17.71.52t-17.73.17q-13.54,0-25.73-.71-8-.45-15.3-1.21-3.54.28-7,.49-9.39.56-18.47.56-6.19,0-13,.18c-2.9.81-5.61,1.48-8.08,2a133,133,0,0,1-15.57,1.49l1.27,2.27c-1.66.69-2.51,1.51-2.51,2.44q-.59.7,4.35,2.62l5.61,8.91c5,1,10,1.89,15.23,2.53S91,144.61,96.36,145.2c4,.37,7.84.75,11.49,1.15q3,.33,5.92.68a107.48,107.48,0,0,1,16.8,3.41c2.08.11,3.71.16,5,.16h3.71c2.93,0,5,0,6.22.1a72.77,72.77,0,0,1,8.08,1.3q18.65-.51,40.43-.51,20.23-.13,40.67-.6,5.91-.13,11.85-.29,23-.6,43-3.07,2.94-.36,5.81-.76c5,.46,10.17.7,15.54.7q6.24,0,13.66-.53c8.77-.77,25.84-4.06,40.05-4.92,2.17-.13,4.27-.2,6.26-.2C385.83,141.82,434.16,137.83,433,134.77Z"/><line class="cls-2" x1="364.57" y1="139.14" x2="364.57" y2="499"/><path class="cls-3" d="M0,0V1131H671V0ZM277.23,114.6c1.39-1.25,3.24-2.8,5.63-4.76A211.13,211.13,0,0,0,304.2,96c6.46-4.76,13.4-10,20.74-15.65q9.62-7.22,19-14.1t18.9-13l13.45,1.52c4.67-2.23,7-3,6.93-2.2.76.72.49,2.2-.78,4.38l3.25.55c-8.35,8.12-13.66,13.57-16,16.45s-4.76,6-7.3,9.52Q355,90.4,348.12,96.48q-9.27,8.22-18.45,17.11-17.42.39-34.65,1.74-10.56.83-20.48,1.65Zm-246,271.75-21.57-20c5.88-5.72,11.06-10.61,14.66-13.81,16.68-14.81,36.57-38.89,47-49.5q7.79-7.71,14.68-13.84,3.87-3.44,7.73-6.66-.11,24.33-.67,51.58Q84.95,341.64,76.63,349,51.76,371.12,31.25,386.35Z"/><path class="cls-1" d="M142.58,978.52q-1.61-42.15-3.35-78.4c-.22-3.57-.38-7.09-.46-10.65s-.17-9.62-.3-18.16q.34-16,.35-31.94t-.11-32q-.12-14.89,0-30.34t.44-30.39q.84-38.3,4.06-70.22-.9-22.35-.43-43.69.24-10.62.25-22.33c-1-5-1.74-9.65-2.34-13.91s-1-13.15-1.37-26.7l-1.46,1-1.58,1.09c-.86-2.86-1.9-4.33-3.12-4.35q-.9-1-3.61,7.36l-11.94,9.36q-2.35,12.74-3.91,26t-3,27.07c-1,10.63-2,20.59-3.06,29.77a236.84,236.84,0,0,1-5.12,28.68c-.22,3.56-.36,6.35-.4,8.52l-.14,6.36c-.09,4-.18,7.11-.29,9.26v0c0,.5-.05.94-.07,1.34-.12,2.17-.79,6.75-2,13.81q0,32-.83,69.25-.74,44.73-.79,90t3.23,83.71c-.8,8.52-1.3,17.4-1.5,26.59q-.24,10.69.18,23.43c.79,17.33,5.59,53.62,5,79.46-.12,5.58-.05,13.86.17,23.39h34.15q3.24-29.25,4.08-67.79Q144.2,1020.58,142.58,978.52Z"/><path class="cls-1" d="M295,115.33q-10.56.83-20.48,1.65l-1.42,1.26c-3.23,2.87-5.52,4.86-6.94,6s-4.77,3.49-10,6.9q-10.25,9.53-21.52,19.72-10.9,9.87-22.74,20.38-28.71,25.78-57.32,52.27Q144.37,233,135,242.19q-16.93,16.56-31.21,32.3-5,3.84-10,8-.11,24.33-.67,51.58,18.78-17.26,36.59-35.13l3.43-3.43q23.64-23.7,44-44.47c2.12-2.22,4.24-4.38,6.44-6.51s6-5.74,11.27-10.82q10.31-9.15,20.4-18.51t20.1-18.79q9.33-8.8,19.14-17.8t19.47-17.55q7.94-7,15.62-13.57,16.25-13.8,31.29-25.2,4.43-4.44,8.87-8.74Q312.26,114,295,115.33Z"/></g></g></svg>